<?xml version="1.0" encoding="UTF-8"?>
<svg xmlns="http://www.w3.org/2000/svg" width="1200" height="280" viewBox="0 0 1200 280" role="img" aria-labelledby="title desc">
  <title id="title">Как устроен PlanBoard</title>
  <desc id="desc">Захват задачи, план по календарю, дейлик и выгрузка — всё в plan.json.</desc>
  <defs>
    <linearGradient id="wbg" x1="0" y1="0" x2="1" y2="1">
      <stop offset="0%" stop-color="#0c0e14"/>
      <stop offset="100%" stop-color="#12161f"/>
    </linearGradient>
  </defs>
  <rect width="1200" height="280" rx="26" fill="url(#wbg)"/>
  <rect x="1" y="1" width="1198" height="278" rx="25" fill="none" stroke="#2a3140"/>
  <text x="56" y="52" fill="#6b8cff" font-family="ui-monospace, SFMono-Regular, Menlo, Consolas, monospace" font-size="18" letter-spacing="2">FLOW</text>
  <text x="56" y="92" fill="#e8eaed" font-family="-apple-system, BlinkMacSystemFont, Segoe UI, sans-serif" font-size="32" font-weight="700">От захвата до выгрузки</text>
  <g font-family="-apple-system, BlinkMacSystemFont, Segoe UI, sans-serif">
    <rect x="56" y="128" width="240" height="110" rx="16" fill="#1a1d24" stroke="#2a3140"/>
    <circle cx="88" cy="164" r="16" fill="#6b8cff"/>
    <text x="82" y="170" fill="#0c0e14" font-size="18" font-weight="700">1</text>
    <text x="116" y="170" fill="#e8eaed" font-size="22" font-weight="600">Захват</text>
    <text x="76" y="204" fill="#a8adb8" font-size="18">Q / Й → входящие</text>
    <text x="76" y="230" fill="#6e7380" font-size="16">задача или фото</text>
    <path d="M308 183 H336" stroke="#6b8cff" stroke-width="3" stroke-linecap="round"/>
    <path d="M328 173 L340 183 L328 193" fill="none" stroke="#6b8cff" stroke-width="3" stroke-linecap="round" stroke-linejoin="round"/>
    <rect x="352" y="128" width="240" height="110" rx="16" fill="#1a1d24" stroke="#2a3140"/>
    <circle cx="384" cy="164" r="16" fill="#6b8cff"/>
    <text x="378" y="170" fill="#0c0e14" font-size="18" font-weight="700">2</text>
    <text x="412" y="170" fill="#e8eaed" font-size="22" font-weight="600">План</text>
    <text x="372" y="204" fill="#a8adb8" font-size="18">календарь + DnD</text>
    <text x="372" y="230" fill="#6e7380" font-size="16">дедлайн на день</text>
    <path d="M604 183 H632" stroke="#6b8cff" stroke-width="3" stroke-linecap="round"/>
    <path d="M624 173 L636 183 L624 193" fill="none" stroke="#6b8cff" stroke-width="3" stroke-linecap="round" stroke-linejoin="round"/>
    <rect x="648" y="128" width="240" height="110" rx="16" fill="#1a1d24" stroke="#2a3140"/>
    <circle cx="680" cy="164" r="16" fill="#6b8cff"/>
    <text x="674" y="170" fill="#0c0e14" font-size="18" font-weight="700">3</text>
    <text x="708" y="170" fill="#e8eaed" font-size="22" font-weight="600">Дейлик</text>
    <text x="668" y="204" fill="#a8adb8" font-size="18">отчёт к созвону</text>
    <text x="668" y="230" fill="#6e7380" font-size="16">дни в настройках</text>
    <path d="M900 183 H928" stroke="#6b8cff" stroke-width="3" stroke-linecap="round"/>
    <path d="M920 173 L932 183 L920 193" fill="none" stroke="#6b8cff" stroke-width="3" stroke-linecap="round" stroke-linejoin="round"/>
    <rect x="944" y="128" width="200" height="110" rx="16" fill="#1a1d24" stroke="#2a3140"/>
    <circle cx="976" cy="164" r="16" fill="#30cfea"/>
    <text x="970" y="170" fill="#0c0e14" font-size="18" font-weight="700">4</text>
    <text x="1004" y="170" fill="#e8eaed" font-size="22" font-weight="600">Выгрузка</text>
    <text x="964" y="204" fill="#a8adb8" font-size="18">TG / Jira</text>
    <text x="964" y="230" fill="#6e7380" font-size="16">plan.json</text>
  </g>
</svg>
